<svg width="24" height="24" viewBox="0 0 24 24" fill="none" xmlns="http://www.w3.org/2000/svg">
<g clip-path="url(#clip0_517_6620)">
<path d="M10.4087 11.6134C10.4087 8.45027 7.89942 5.88575 4.8041 5.88575C4.42116 5.88575 2.64919 5.92545 2.28793 6.00025V9.89847H4.8041C5.73077 9.89847 6.48227 10.6662 6.48227 11.6134C6.48227 12.5242 5.78722 13.2669 4.90993 13.3231H1V17.3411H4.93182V17.3378C7.96811 17.268 10.4087 14.7329 10.4087 11.6134" fill="#1C58AF"/>
<path d="M21.2569 15.5774C21.2872 15.5452 21.3179 15.5131 21.3477 15.48C21.3788 15.4451 21.4091 15.4089 21.4396 15.3732C21.4681 15.3396 21.4973 15.3063 21.5254 15.2718C21.5553 15.2352 21.5834 15.1977 21.6124 15.1604C21.6394 15.1253 21.6671 15.0906 21.6933 15.0551C21.7214 15.0167 21.7482 14.9777 21.7753 14.9386C21.8006 14.9024 21.8266 14.8667 21.8511 14.8298C21.8777 14.7901 21.9026 14.7493 21.9281 14.7087C21.9515 14.6714 21.9758 14.6346 21.9983 14.5969C22.0228 14.5556 22.046 14.5135 22.0694 14.4718C22.0913 14.4332 22.1136 14.3951 22.1346 14.356C22.1574 14.3132 22.1786 14.2696 22.2005 14.2264C22.22 14.1871 22.2407 14.1481 22.2595 14.1084C22.2806 14.0638 22.2997 14.0184 22.3199 13.9734C22.3375 13.9333 22.3559 13.894 22.3729 13.8537C22.3918 13.8078 22.4089 13.7613 22.427 13.7148C22.4426 13.674 22.4594 13.6337 22.4742 13.5924C22.4914 13.5448 22.5064 13.4963 22.5225 13.4483C22.536 13.4073 22.5504 13.3667 22.5633 13.3252C22.5783 13.2759 22.5914 13.2257 22.6051 13.1759C22.6167 13.1346 22.6292 13.0936 22.6395 13.0521C22.6526 13.0006 22.6635 12.9484 22.6749 12.8964C22.6841 12.8556 22.6944 12.815 22.7028 12.7738C22.7138 12.7196 22.7223 12.6645 22.7318 12.6097C22.7384 12.57 22.7466 12.5305 22.7526 12.4904C22.7614 12.4322 22.7676 12.3735 22.7747 12.3147C22.7792 12.2772 22.7848 12.2401 22.7887 12.2024C22.7953 12.1361 22.7994 12.0694 22.8037 12.0027C22.8058 11.9716 22.8088 11.9411 22.8106 11.9099C22.8155 11.8117 22.8179 11.713 22.8179 11.6136C22.8179 11.5149 22.8155 11.417 22.8106 11.3197V9.25067H18.8811V11.6136H18.8912C18.8912 11.6744 18.8878 11.7356 18.8815 11.7976C18.8702 11.9069 18.8487 12.0128 18.8182 12.1148C18.8143 12.1275 18.8096 12.1403 18.8055 12.153C18.7937 12.189 18.7813 12.2245 18.7673 12.2594C18.7592 12.2793 18.7506 12.2991 18.7418 12.3188C18.7304 12.3443 18.7186 12.3697 18.7059 12.3947C18.6939 12.4189 18.6813 12.4428 18.6679 12.4662C18.6579 12.4842 18.6471 12.502 18.6362 12.5198C18.6194 12.5472 18.6025 12.5744 18.5842 12.6007C18.5772 12.6108 18.5694 12.6204 18.5623 12.6303C18.4623 12.7681 18.343 12.8903 18.2084 12.9923C18.1985 12.9997 18.1891 13.0074 18.1792 13.0144C18.1534 13.0333 18.1266 13.0506 18.0998 13.0677C18.0826 13.0787 18.0654 13.0899 18.0476 13.1002C18.0246 13.1138 18.0012 13.1267 17.9776 13.139C17.9532 13.152 17.9283 13.1642 17.9031 13.1759C17.884 13.1846 17.8647 13.1936 17.8452 13.2017C17.8108 13.216 17.7758 13.2289 17.7404 13.241C17.7284 13.2452 17.7164 13.2498 17.7037 13.2537C17.6037 13.2849 17.5 13.3068 17.3929 13.3184C17.3444 13.3237 17.2967 13.3257 17.2491 13.3268C17.2375 13.327 17.2263 13.3285 17.2145 13.3285C17.1559 13.3285 17.098 13.3252 17.0407 13.3193C17.0218 13.3173 17.0033 13.3134 16.9844 13.3108C16.9466 13.3055 16.9086 13.3002 16.8715 13.2923C16.8485 13.2875 16.8262 13.2809 16.8037 13.275C16.7717 13.2669 16.7401 13.2588 16.709 13.2487C16.6848 13.2408 16.6609 13.2318 16.6371 13.2228C16.6092 13.2125 16.5813 13.2015 16.5542 13.1897C16.5293 13.1787 16.5047 13.1671 16.4804 13.155C16.4562 13.1427 16.4317 13.13 16.4079 13.1166C16.3827 13.1026 16.3578 13.0879 16.3334 13.0723C16.3125 13.0594 16.2922 13.0453 16.272 13.0313C16.2462 13.0135 16.2207 12.9953 16.196 12.976C16.1797 12.9633 16.164 12.9497 16.1483 12.9363C16.1215 12.9137 16.0945 12.8909 16.0691 12.8668C16.0595 12.8576 16.0505 12.8475 16.041 12.8381C15.8291 12.6255 15.6714 12.3566 15.593 12.0543C15.5922 12.051 15.5913 12.0479 15.5907 12.0449C15.5782 11.9959 15.5681 11.9459 15.5598 11.8952C15.5591 11.8904 15.5583 11.8856 15.5574 11.8806C15.5492 11.8275 15.5437 11.7735 15.5402 11.7187V11.7149V7.72613H15.5349V2H11.6084V7.72613V11.7443H11.6114C11.6726 14.5142 13.6566 16.7972 16.2531 17.2557C16.2636 17.2577 16.2743 17.2597 16.2851 17.2614C16.355 17.2735 16.4255 17.2838 16.4963 17.293C16.5255 17.2969 16.5547 17.3009 16.5839 17.3042C16.6401 17.3105 16.6968 17.3158 16.7537 17.3206C16.7944 17.3239 16.8352 17.3274 16.8764 17.3301C16.9262 17.3329 16.9765 17.3349 17.0265 17.3364C17.057 17.3375 17.0868 17.3399 17.1175 17.3404C17.1332 17.3408 17.1486 17.3399 17.1645 17.3399C17.1808 17.3402 17.1969 17.3413 17.2132 17.3413C17.2467 17.3413 17.28 17.3393 17.3133 17.3386C17.3609 17.3377 17.4084 17.3369 17.4556 17.3349C17.5047 17.3327 17.5532 17.3294 17.6022 17.3259C17.6488 17.3228 17.6958 17.3195 17.7424 17.3149C17.7907 17.3103 17.8385 17.3046 17.8866 17.2987C17.9328 17.293 17.9789 17.2875 18.0248 17.2807C18.0725 17.2735 18.1199 17.2651 18.1669 17.2568C18.2125 17.2489 18.2577 17.2412 18.3028 17.232C18.3498 17.2226 18.3962 17.2118 18.4428 17.2013C18.4874 17.191 18.5321 17.1811 18.5763 17.1697C18.6224 17.1581 18.6677 17.1449 18.7132 17.132C18.757 17.1197 18.801 17.1076 18.8442 17.094C18.8895 17.08 18.9341 17.0646 18.979 17.0495C19.0217 17.035 19.0644 17.0208 19.1067 17.0052C19.1509 16.9892 19.1945 16.9714 19.2383 16.9541C19.2801 16.9376 19.322 16.9214 19.3634 16.9039C19.4066 16.8854 19.4491 16.8659 19.4918 16.8464C19.5326 16.8277 19.5734 16.8095 19.6137 16.79C19.6558 16.7696 19.6972 16.7477 19.7391 16.7262C19.7784 16.7058 19.8183 16.6858 19.8571 16.6643C19.8983 16.6419 19.9383 16.6183 19.9788 16.5946C20.0175 16.5722 20.0561 16.5503 20.0941 16.527C20.1338 16.5026 20.1725 16.477 20.2115 16.4518C20.2491 16.4274 20.2867 16.4035 20.3234 16.3783C20.362 16.3522 20.3994 16.3245 20.4371 16.2973C20.4734 16.2714 20.5097 16.2458 20.5453 16.219C20.582 16.1909 20.6181 16.1618 20.6546 16.1328C20.6893 16.105 20.7248 16.0775 20.7589 16.049C20.7945 16.0192 20.8291 15.9883 20.8641 15.9575C20.8973 15.9282 20.9311 15.8992 20.9639 15.8691C20.9982 15.8376 21.0315 15.8047 21.065 15.7722C21.097 15.7413 21.1292 15.7108 21.1603 15.6792C21.1931 15.6458 21.2249 15.6114 21.2569 15.5774" fill="#1C58AF"/>
<path d="M15.5376 20.2844C15.5376 21.2318 14.7861 22 13.859 22C12.9317 22 12.1802 21.2318 12.1802 20.2844C12.1802 19.337 12.9317 18.569 13.859 18.569C14.7861 18.569 15.5376 19.337 15.5376 20.2844" fill="#1C58AF"/>
<path d="M18.8942 20.2844C18.8942 21.2318 18.1425 22 17.2156 22C16.2883 22 15.5366 21.2318 15.5366 20.2844C15.5366 19.337 16.2883 18.569 17.2156 18.569C18.1425 18.569 18.8942 19.337 18.8942 20.2844" fill="#1C58AF"/>
<path d="M22.2495 20.2844C22.2495 21.2318 21.498 22 20.5709 22C19.6436 22 18.8921 21.2318 18.8921 20.2844C18.8921 19.337 19.6436 18.569 20.5709 18.569C21.498 18.569 22.2495 19.337 22.2495 20.2844" fill="#1C58AF"/>
</g>
<defs>
<clipPath id="clip0_517_6620">
<rect width="24" height="24" fill="white"/>
</clipPath>
</defs>
</svg>
